<svg width="581" height="207" viewBox="0 0 581 207" fill="none" xmlns="http://www.w3.org/2000/svg">
<path d="M185.025 0.34999C203.625 0.34999 218.1 5.89999 228.45 17C238.95 27.95 244.2 43.85 244.2 64.7V161H199.65V66.05C199.65 56.6 197.175 49.475 192.225 44.675C187.275 39.725 180.675 37.25 172.425 37.25C163.575 37.25 156.525 39.875 151.275 45.125C146.175 50.225 143.625 57.95 143.625 68.3V161H99.075V66.05C99.075 56.6 96.75 49.475 92.1 44.675C87.6 39.725 81.375 37.25 73.425 37.25C64.875 37.25 58.05 39.875 52.95 45.125C47.85 50.225 45.3 57.95 45.3 68.3V161H0.75V3.49999H43.95V21.05C48.75 14.3 54.9 9.19999 62.4 5.74999C70.05 2.14999 78.9 0.34999 88.95 0.34999C99.3 0.34999 108.3 2.22499 115.95 5.975C123.75 9.72499 130.05 15.2 134.85 22.4C140.25 15.2 147.3 9.72499 156 5.975C164.7 2.22499 174.375 0.34999 185.025 0.34999ZM400.754 39.05V138.725C400.754 161.375 394.679 178.325 382.529 189.575C370.529 200.975 353.204 206.675 330.554 206.675C318.704 206.675 307.604 205.325 297.254 202.625C287.054 199.925 278.354 195.95 271.154 190.7L286.679 160.775C291.479 164.825 297.479 167.975 304.679 170.225C312.029 172.625 319.304 173.825 326.504 173.825C337.304 173.825 345.254 171.35 350.354 166.4C355.454 161.45 358.004 154.1 358.004 144.35V141.65C348.854 150.35 337.454 154.7 323.804 154.7C308.054 154.7 295.454 150.05 286.004 140.75C276.704 131.45 272.054 117.5 272.054 98.9V39.05H314.804V91.925C314.804 101.225 316.529 107.975 319.979 112.175C323.429 116.375 328.454 118.475 335.054 118.475C341.804 118.475 347.279 116.075 351.479 111.275C355.829 106.475 358.004 99.275 358.004 89.675V39.05H400.754ZM551.365 78.875C560.365 82.025 567.415 86.975 572.515 93.725C577.615 100.325 580.165 108.35 580.165 117.8C580.165 131.6 574.615 142.25 563.515 149.75C552.415 157.25 536.365 161 515.365 161H430.315V3.49999H510.865C530.965 3.49999 546.265 7.24999 556.765 14.75C567.265 22.1 572.515 32.075 572.515 44.675C572.515 52.175 570.64 58.925 566.89 64.925C563.29 70.775 558.115 75.425 551.365 78.875ZM474.415 35.675V66.05H505.015C520.015 66.05 527.515 60.95 527.515 50.75C527.515 40.7 520.015 35.675 505.015 35.675H474.415ZM511.765 128.825C527.365 128.825 535.165 123.5 535.165 112.85C535.165 102.2 527.365 96.875 511.765 96.875H474.415V128.825H511.765Z" fill="#4361EE"/>
</svg>
